<svg width="24" height="24" viewBox="0 0 24 24" fill="none" xmlns="http://www.w3.org/2000/svg">
<path d="M22.5601 16.3007L14.8901 3.58067C14.58 3.09549 14.1527 2.69619 13.6476 2.41961C13.1425 2.14302 12.5759 1.99805 12.0001 1.99805C11.4243 1.99805 10.8577 2.14302 10.3526 2.41961C9.84755 2.69619 9.42024 3.09549 9.1101 3.58067L1.4401 16.3007C1.16915 16.7523 1.02189 17.2674 1.01311 17.794C1.00434 18.3206 1.13436 18.8402 1.3901 19.3007C1.68578 19.8189 2.11376 20.2494 2.6303 20.5481C3.14684 20.8468 3.73343 21.0029 4.3301 21.0007H19.6701C20.2629 21.007 20.8468 20.8569 21.363 20.5654C21.8792 20.2739 22.3093 19.8515 22.6101 19.3407C22.8734 18.8754 23.0075 18.3483 22.9987 17.8139C22.9899 17.2794 22.8385 16.757 22.5601 16.3007ZM20.8601 18.3507C20.7399 18.5573 20.5655 18.727 20.3557 18.8416C20.146 18.9562 19.9089 19.0112 19.6701 19.0007H4.3301C4.09132 19.0112 3.85422 18.9562 3.64446 18.8416C3.4347 18.727 3.26029 18.5573 3.1401 18.3507C3.05233 18.1987 3.00613 18.0262 3.00613 17.8507C3.00613 17.6751 3.05233 17.5027 3.1401 17.3507L10.8201 4.62067C10.9581 4.43838 11.1365 4.29053 11.3412 4.18874C11.5459 4.08695 11.7715 4.03398 12.0001 4.03398C12.2287 4.03398 12.4543 4.08695 12.659 4.18874C12.8637 4.29053 13.0421 4.43838 13.1801 4.62067L20.8501 17.3407C20.9413 17.493 20.9902 17.6668 20.992 17.8443C20.9937 18.0218 20.9482 18.1966 20.8601 18.3507Z" fill="#009E65"/>
<path d="M12 17C12.5523 17 13 16.5523 13 16C13 15.4477 12.5523 15 12 15C11.4477 15 11 15.4477 11 16C11 16.5523 11.4477 17 12 17Z" fill="#009E65"/>
<path d="M12 8C11.7348 8 11.4804 8.10536 11.2929 8.29289C11.1054 8.48043 11 8.73478 11 9V13C11 13.2652 11.1054 13.5196 11.2929 13.7071C11.4804 13.8946 11.7348 14 12 14C12.2652 14 12.5196 13.8946 12.7071 13.7071C12.8946 13.5196 13 13.2652 13 13V9C13 8.73478 12.8946 8.48043 12.7071 8.29289C12.5196 8.10536 12.2652 8 12 8Z" fill="#009E65"/>
</svg>
