<svg width="74" height="34" viewBox="0 0 74 34" fill="none" xmlns="http://www.w3.org/2000/svg">
<rect x="-1" y="1" width="32" height="32" rx="7" transform="matrix(-1 0 0 1 32 0)" fill="white"/>
<rect x="-1" y="1" width="32" height="32" rx="7" transform="matrix(-1 0 0 1 32 0)" fill="#009E65"/>
<rect x="-1" y="1" width="32" height="32" rx="7" transform="matrix(-1 0 0 1 32 0)" stroke="#2EAF81" stroke-width="2"/>
<g clip-path="url(#clip0_1_411)">
<path d="M12.4479 17.5368C12.3108 17.3918 12.2344 17.1997 12.2344 17.0001C12.2344 16.8005 12.3107 16.6085 12.4478 16.4635C12.4478 16.4635 12.4479 16.4634 12.4479 16.4634C12.4479 16.4634 12.4479 16.4634 12.4479 16.4634L16.9624 11.6828C17.0322 11.6072 17.1162 11.5462 17.2096 11.5032C17.3036 11.4599 17.4053 11.4357 17.5087 11.432C17.6121 11.4283 17.7153 11.4452 17.8121 11.4818C17.9089 11.5183 17.9976 11.5737 18.0728 11.6447C18.1481 11.7158 18.2085 11.8011 18.2505 11.8957L18.022 11.9971L18.2505 11.8957C18.2925 11.9903 18.3153 12.0923 18.3175 12.1957C18.3198 12.2992 18.3014 12.4021 18.2636 12.4984C18.226 12.5942 18.1698 12.6816 18.0983 12.7555L14.0901 17.0001L18.0994 21.2447C18.1698 21.3193 18.2249 21.407 18.2615 21.5029C18.2981 21.5987 18.3154 21.7009 18.3125 21.8035C18.3096 21.906 18.2865 22.007 18.2446 22.1007C18.2027 22.1943 18.1427 22.2788 18.0681 22.3493L17.8964 22.1676L18.0681 22.3493C17.9935 22.4198 17.9058 22.4749 17.8099 22.5114C17.714 22.548 17.6119 22.5653 17.5093 22.5624C17.4068 22.5595 17.3058 22.5365 17.2121 22.4945C17.1185 22.4526 17.034 22.3926 16.9635 22.318L16.9635 22.318L12.4479 17.5368ZM12.4479 17.5368L12.6296 17.3651M12.4479 17.5368L12.4478 17.5367L12.6296 17.3651M12.6296 17.3651C12.5363 17.2664 12.4844 17.1359 12.4844 17.0001C12.4844 16.8644 12.5363 16.7338 12.6296 16.6351M12.6296 17.3651L12.6296 16.6351M12.6296 16.6351L17.1452 11.8534C17.1928 11.8015 17.2503 11.7597 17.3142 11.7302L12.6296 16.6351Z" fill="white" stroke="white" stroke-width="0.5"/>
</g>
<rect x="41" y="1" width="32" height="32" rx="7" fill="#009E65" stroke="#2EAF81" stroke-width="2"/>
<g clip-path="url(#clip1_1_411)">
<path d="M61.5521 17.5368C61.6892 17.3918 61.7656 17.1997 61.7656 17.0001C61.7656 16.8005 61.6893 16.6085 61.5522 16.4635C61.5522 16.4635 61.5521 16.4634 61.5521 16.4634C61.5521 16.4634 61.5521 16.4634 61.5521 16.4634L57.0376 11.6828C56.9678 11.6072 56.8838 11.5462 56.7904 11.5032C56.6964 11.4599 56.5947 11.4357 56.4913 11.432C56.3879 11.4283 56.2847 11.4452 56.1879 11.4818C56.0911 11.5183 56.0024 11.5737 55.9272 11.6447C55.8519 11.7158 55.7915 11.8011 55.7495 11.8957L55.978 11.9971L55.7495 11.8957C55.7075 11.9903 55.6847 12.0923 55.6825 12.1957C55.6802 12.2992 55.6986 12.4021 55.7364 12.4984C55.774 12.5942 55.8302 12.6816 55.9017 12.7555L59.9099 17.0001L55.9006 21.2447C55.8302 21.3193 55.7751 21.407 55.7385 21.5029C55.7019 21.5987 55.6846 21.7009 55.6875 21.8035C55.6904 21.906 55.7135 22.007 55.7554 22.1007C55.7973 22.1943 55.8573 22.2788 55.9319 22.3493L56.1036 22.1676L55.9319 22.3493C56.0065 22.4198 56.0942 22.4749 56.1901 22.5114C56.286 22.548 56.3881 22.5653 56.4907 22.5624C56.5932 22.5595 56.6942 22.5365 56.7879 22.4945C56.8815 22.4526 56.966 22.3926 57.0365 22.318L57.0365 22.318L61.5521 17.5368ZM61.5521 17.5368L61.3704 17.3651M61.5521 17.5368L61.5522 17.5367L61.3704 17.3651M61.3704 17.3651C61.4637 17.2664 61.5156 17.1359 61.5156 17.0001C61.5156 16.8644 61.4637 16.7338 61.3704 16.6351M61.3704 17.3651L61.3704 16.6351M61.3704 16.6351L56.8548 11.8534C56.8072 11.8015 56.7497 11.7597 56.6858 11.7302L61.3704 16.6351Z" fill="white" stroke="white" stroke-width="0.5"/>
</g>
<defs>
<clipPath id="clip0_1_411">
<rect width="12.75" height="12.75" fill="white" transform="matrix(1 -8.74228e-08 -8.74228e-08 -1 11.1562 23.375)"/>
</clipPath>
<clipPath id="clip1_1_411">
<rect width="12.75" height="12.75" fill="white" transform="translate(62.8438 23.375) rotate(-180)"/>
</clipPath>
</defs>
</svg>
