<svg width="28" height="28" viewBox="0 0 28 28" fill="none" xmlns="http://www.w3.org/2000/svg">
<path d="M9.04168 4.66675C9.04168 4.43468 8.94949 4.21212 8.7854 4.04803C8.62131 3.88394 8.39875 3.79175 8.16668 3.79175C7.93462 3.79175 7.71206 3.88394 7.54796 4.04803C7.38387 4.21212 7.29168 4.43468 7.29168 4.66675V6.78541C6.44055 6.90611 5.6523 7.30203 5.04729 7.91274C4.44227 8.52344 4.05374 9.31536 3.94102 10.1676L3.83952 10.9294C3.82202 11.0577 3.80568 11.1872 3.79052 11.3167C3.78111 11.3976 3.78895 11.4795 3.81354 11.557C3.83813 11.6346 3.87889 11.7061 3.93315 11.7667C3.9874 11.8274 4.0539 11.8758 4.12826 11.9089C4.20262 11.9419 4.28315 11.9588 4.36452 11.9584H23.6367C23.7181 11.9588 23.7986 11.9419 23.8729 11.9089C23.9473 11.8758 24.0138 11.8274 24.0681 11.7667C24.1223 11.7061 24.1631 11.6346 24.1877 11.557C24.2122 11.4795 24.2201 11.3976 24.2107 11.3167C24.1943 11.1884 24.1792 11.0577 24.1617 10.9294L24.0602 10.1676C23.9475 9.31536 23.5589 8.52344 22.9539 7.91274C22.3489 7.30203 21.5606 6.90611 20.7095 6.78541V4.66675C20.7095 4.43468 20.6173 4.21212 20.4532 4.04803C20.2891 3.88394 20.0666 3.79175 19.8345 3.79175C19.6024 3.79175 19.3799 3.88394 19.2158 4.04803C19.0517 4.21212 18.9595 4.43468 18.9595 4.66675V6.61275C15.6605 6.31895 12.3419 6.31895 9.04285 6.61275L9.04168 4.66675ZM24.4358 14.2637C24.4304 14.1142 24.367 13.9726 24.259 13.8689C24.151 13.7653 24.0069 13.7077 23.8572 13.7084H4.14285C3.99316 13.7077 3.84907 13.7653 3.74107 13.8689C3.63307 13.9726 3.56963 14.1142 3.56418 14.2637C3.49465 16.375 3.62355 18.4882 3.94918 20.5754C4.069 21.3444 4.44087 22.0518 5.00639 22.5865C5.57191 23.1212 6.29902 23.4529 7.07352 23.5294L8.46535 23.6671C12.1462 24.0287 15.8538 24.0287 19.5347 23.6671L20.9265 23.5294C21.701 23.4529 22.4281 23.1212 22.9936 22.5865C23.5592 22.0518 23.931 21.3444 24.0508 20.5754C24.376 18.4882 24.5049 16.375 24.4358 14.2637Z" fill="#B6BEC5"/>
</svg>
