<svg width="35" height="35" viewBox="0 0 35 35" fill="none" xmlns="http://www.w3.org/2000/svg">
<path d="M10.1818 1.94446C7.87528 1.94446 6 3.68838 6 5.83335V29.1667C6 31.3116 7.87528 33.0556 10.1818 33.0556H24.8182C27.1247 33.0556 29 31.3116 29 29.1667V5.83335C29 3.68838 27.1247 1.94446 24.8182 1.94446H10.1818ZM15.4091 28.1945H19.5909C20.1659 28.1945 20.6364 28.632 20.6364 29.1667C20.6364 29.7014 20.1659 30.1389 19.5909 30.1389H15.4091C14.8341 30.1389 14.3636 29.7014 14.3636 29.1667C14.3636 28.632 14.8341 28.1945 15.4091 28.1945Z" fill="#009E65"/>
</svg>
