<svg width="18" height="18" viewBox="0 0 18 18" fill="none" xmlns="http://www.w3.org/2000/svg">
<path fill-rule="evenodd" clip-rule="evenodd" d="M6.255 4.95339C6.55875 5.30664 6.50588 5.83539 6.23813 6.21676C5.83916 6.78482 5.62506 7.46209 5.625 8.15626C5.625 8.87851 5.85225 9.54789 6.23813 10.0958C6.50588 10.4771 6.55763 11.0059 6.255 11.3591C5.95125 11.7135 5.41125 11.7574 5.11313 11.3996C4.35192 10.4905 3.93564 9.34202 3.9375 8.15626C3.9375 6.92214 4.37963 5.79151 5.11313 4.91289C5.41238 4.55514 5.95125 4.59901 6.255 4.95339ZM11.745 4.95339C11.4413 5.30664 11.4941 5.83539 11.7619 6.21676C12.1489 6.76464 12.375 7.43401 12.375 8.15626C12.375 8.87851 12.1489 9.54789 11.7619 10.0958C11.4941 10.4771 11.4424 11.0059 11.745 11.3591C12.0488 11.7135 12.5888 11.7574 12.8869 11.3996C13.6481 10.4905 14.0644 9.34202 14.0625 8.15626C14.0644 6.9705 13.6481 5.82206 12.8869 4.91289C12.5888 4.55514 12.0488 4.59901 11.745 4.95339ZM13.9421 2.39064C13.6384 2.74501 13.6834 3.27376 13.9984 3.61914C15.1276 4.86016 15.7524 6.47837 15.75 8.15626C15.75 9.90339 15.0863 11.4953 13.9973 12.6934C13.6845 13.0388 13.6384 13.5675 13.941 13.9219C14.2448 14.2751 14.7814 14.319 15.1031 13.9815C16.6043 12.414 17.4408 10.3266 17.4375 8.15626C17.4375 5.89726 16.5488 3.84526 15.1031 2.33101C14.7814 1.99351 14.2448 2.03739 13.9421 2.39064ZM4.05788 2.39064C3.75413 2.03739 3.21863 1.99351 2.89688 2.33101C1.39674 3.89912 0.560394 5.98615 0.562504 8.15626C0.562504 10.4153 1.45125 12.4673 2.89688 13.9815C3.21863 14.319 3.75525 14.2751 4.05788 13.9219C4.36163 13.5675 4.31663 13.0388 4.00163 12.6934C2.87239 11.4524 2.24765 9.83415 2.25 8.15626C2.25 6.40914 2.91375 4.81726 4.00275 3.61914C4.3155 3.27376 4.3605 2.74501 4.05788 2.39064ZM9.84375 9.61876C10.1655 9.43302 10.4169 9.14632 10.5591 8.80312C10.7012 8.45992 10.7261 8.0794 10.63 7.72059C10.5339 7.36177 10.322 7.0447 10.0273 6.81856C9.73258 6.59242 9.37148 6.46984 9 6.46984C8.62853 6.46984 8.26743 6.59242 7.97272 6.81856C7.67801 7.0447 7.46615 7.36177 7.37 7.72059C7.27386 8.0794 7.2988 8.45992 7.44096 8.80312C7.58311 9.14632 7.83455 9.43302 8.15625 9.61876V16.0324C8.15625 16.2562 8.24515 16.4708 8.40338 16.629C8.56162 16.7872 8.77623 16.8761 9 16.8761C9.22378 16.8761 9.43839 16.7872 9.59663 16.629C9.75486 16.4708 9.84375 16.2562 9.84375 16.0324V9.61876Z" fill="#009E65"/>
</svg>
