<svg width="35" height="35" viewBox="0 0 35 35" fill="none" xmlns="http://www.w3.org/2000/svg">
<path fill-rule="evenodd" clip-rule="evenodd" d="M12.1625 9.63157C12.7531 10.3184 12.6503 11.3466 12.1297 12.0881C11.3539 13.1927 10.9376 14.5096 10.9375 15.8594C10.9375 17.2638 11.3794 18.5653 12.1297 19.6306C12.6503 20.3722 12.7509 21.4003 12.1625 22.0872C11.5719 22.7763 10.5219 22.8616 9.94219 22.1659C8.46207 20.3981 7.65264 18.165 7.65626 15.8594C7.65626 13.4597 8.51594 11.2613 9.94219 9.55282C10.5241 8.85719 11.5719 8.94251 12.1625 9.63157ZM22.8375 9.63157C22.2469 10.3184 22.3497 11.3466 22.8703 12.0881C23.6228 13.1534 24.0625 14.455 24.0625 15.8594C24.0625 17.2638 23.6228 18.5653 22.8703 19.6306C22.3497 20.3722 22.2491 21.4003 22.8375 22.0872C23.4281 22.7763 24.4781 22.8616 25.0578 22.1659C26.5379 20.3981 27.3474 18.165 27.3438 15.8594C27.3474 13.5537 26.5379 11.3206 25.0578 9.55282C24.4781 8.85719 23.4281 8.94251 22.8375 9.63157ZM27.1097 4.64844C26.5191 5.33751 26.6066 6.36563 27.2191 7.03719C29.4148 9.45029 30.6296 12.5968 30.625 15.8594C30.625 19.2566 29.3344 22.3519 27.2169 24.6816C26.6088 25.3531 26.5191 26.3813 27.1075 27.0703C27.6981 27.7572 28.7416 27.8425 29.3672 27.1863C32.2861 24.1384 33.9126 20.0795 33.9063 15.8594C33.9063 11.4669 32.1781 7.47688 29.3672 4.53251C28.7416 3.87626 27.6981 3.96157 27.1097 4.64844ZM7.89032 4.64844C7.2997 3.96157 6.25845 3.87626 5.63282 4.53251C2.71588 7.58161 1.08965 11.6397 1.09376 15.8594C1.09376 20.2519 2.82188 24.2419 5.63282 27.1863C6.25845 27.8425 7.30188 27.7572 7.89032 27.0703C8.48095 26.3813 8.39345 25.3531 7.78095 24.6816C5.58519 22.2685 4.37043 19.1219 4.37501 15.8594C4.37501 12.4622 5.66563 9.36688 7.78313 7.03719C8.39126 6.36563 8.47876 5.33751 7.89032 4.64844ZM19.1406 18.7031C19.7662 18.342 20.2551 17.7845 20.5315 17.1172C20.8079 16.4498 20.8564 15.7099 20.6695 15.0122C20.4825 14.3145 20.0706 13.698 19.4975 13.2583C18.9245 12.8186 18.2223 12.5802 17.5 12.5802C16.7777 12.5802 16.0756 12.8186 15.5025 13.2583C14.9295 13.698 14.5175 14.3145 14.3306 15.0122C14.1436 15.7099 14.1921 16.4498 14.4685 17.1172C14.7449 17.7845 15.2338 18.342 15.8594 18.7031V31.1741C15.8594 31.6092 16.0322 32.0265 16.3399 32.3342C16.6476 32.6418 17.0649 32.8147 17.5 32.8147C17.9351 32.8147 18.3524 32.6418 18.6601 32.3342C18.9678 32.0265 19.1406 31.6092 19.1406 31.1741V18.7031Z" fill="#009E65"/>
</svg>
