<svg width="31" height="31" viewBox="0 0 31 31" fill="none" xmlns="http://www.w3.org/2000/svg">
<rect opacity="0.7" x="0.501832" y="0.501832" width="18.9963" height="18.9963" rx="9.49817" fill="#009E65" stroke="#2EAF81" stroke-width="1.00366"/>
<path d="M16.8671 22.0484C16.4159 22.0484 16.0855 22.4964 16.0855 23.0003C16.0855 23.5039 16.4158 23.9521 16.8671 23.9521H29.1337C29.5849 23.9521 29.9152 23.5039 29.9152 23.0003C29.9152 22.4966 29.5849 22.0484 29.1337 22.0484H16.8671Z" fill="white" stroke="white" stroke-width="0.2"/>
<path d="M23.9516 16.8671C23.9516 16.4159 23.5036 16.0855 22.9997 16.0855C22.4961 16.0855 22.0479 16.4158 22.0479 16.8671L22.0479 29.1337C22.0479 29.5849 22.4961 29.9152 22.9997 29.9152C23.5034 29.9152 23.9516 29.5849 23.9516 29.1337L23.9516 16.8671Z" fill="white" stroke="white" stroke-width="0.2"/>
<path d="M7.33342 9.57964C7.13222 9.57964 6.98693 9.77889 6.98693 10.0002C6.98693 10.2214 7.13221 10.4207 7.33342 10.4207H12.6667C12.8679 10.4207 13.0132 10.2214 13.0132 10.0002C13.0132 9.77898 12.8679 9.57964 12.6667 9.57964H7.33342Z" fill="white" stroke="white" stroke-width="0.100366"/>
<path d="M10.4203 7.3336C10.4203 7.13241 10.2211 6.98711 9.99975 6.98711C9.77854 6.98711 9.57919 7.1324 9.57919 7.3336L9.57919 12.6669C9.57919 12.8681 9.77854 13.0134 9.99975 13.0134C10.221 13.0134 10.4203 12.8681 10.4203 12.6669L10.4203 7.3336Z" fill="white" stroke="white" stroke-width="0.100366"/>
</svg>
