<svg width="46" height="46" viewBox="0 0 46 46" fill="none" xmlns="http://www.w3.org/2000/svg">
<rect opacity="0.7" x="1" y="1" width="44" height="44" rx="22" fill="#009E65" stroke="#2EAF81" stroke-width="2"/>
<path d="M16.8671 22.0484C16.4159 22.0484 16.0855 22.4964 16.0855 23.0003C16.0855 23.5039 16.4158 23.9521 16.8671 23.9521H29.1337C29.5849 23.9521 29.9152 23.5039 29.9152 23.0003C29.9152 22.4966 29.5849 22.0484 29.1337 22.0484H16.8671Z" fill="white" stroke="white" stroke-width="0.2"/>
<path d="M23.9516 16.8671C23.9516 16.4159 23.5036 16.0855 22.9997 16.0855C22.4961 16.0855 22.0479 16.4158 22.0479 16.8671L22.0479 29.1337C22.0479 29.5849 22.4961 29.9152 22.9997 29.9152C23.5034 29.9152 23.9516 29.5849 23.9516 29.1337L23.9516 16.8671Z" fill="white" stroke="white" stroke-width="0.2"/>
</svg>
