<svg width="20" height="20" viewBox="0 0 20 20" fill="none" xmlns="http://www.w3.org/2000/svg">
<rect opacity="0.7" x="0.501832" y="0.501832" width="18.9963" height="18.9963" rx="9.49817" fill="#009E65" stroke="#2EAF81" stroke-width="1.00366"/>
<path d="M7.33342 9.57964C7.13222 9.57964 6.98693 9.77889 6.98693 10.0002C6.98693 10.2214 7.13221 10.4207 7.33342 10.4207H12.6667C12.8679 10.4207 13.0132 10.2214 13.0132 10.0002C13.0132 9.77898 12.8679 9.57964 12.6667 9.57964H7.33342Z" fill="white" stroke="white" stroke-width="0.100366"/>
<path d="M10.4203 7.3336C10.4203 7.13241 10.2211 6.98711 9.99975 6.98711C9.77854 6.98711 9.57919 7.1324 9.57919 7.3336L9.57919 12.6669C9.57919 12.8681 9.77854 13.0134 9.99975 13.0134C10.221 13.0134 10.4203 12.8681 10.4203 12.6669L10.4203 7.3336Z" fill="white" stroke="white" stroke-width="0.100366"/>
</svg>
