<svg width="125" height="125" viewBox="0 0 125 125" fill="none" xmlns="http://www.w3.org/2000/svg">
<g filter="url(#filter0_d_1_124)">
<rect x="25" y="25" width="75" height="75" rx="16" fill="white"/>
</g>
<g clip-path="url(#clip0_1_124)">
<path d="M62.5 58.125C61.3397 58.125 60.2269 58.5859 59.4064 59.4064C58.5859 60.2269 58.125 61.3397 58.125 62.5C58.125 63.6603 58.5859 64.7731 59.4064 65.5936C60.2269 66.4141 61.3397 66.875 62.5 66.875C63.6603 66.875 64.7731 66.4141 65.5936 65.5936C66.4141 64.7731 66.875 63.6603 66.875 62.5C66.875 61.3397 66.4141 60.2269 65.5936 59.4064C64.7731 58.5859 63.6603 58.125 62.5 58.125Z" fill="#009E65"/>
<path d="M49.375 52.1137C49.3749 51.3451 49.6447 50.6009 50.1372 50.0108C50.6297 49.4207 51.3138 49.0223 52.07 48.885L69.57 45.7043C70.0427 45.6185 70.5284 45.6375 70.9929 45.76C71.4574 45.8825 71.8894 46.1055 72.2583 46.4132C72.6271 46.721 72.9239 47.106 73.1277 47.541C73.3315 47.976 73.4372 48.4505 73.4375 48.9309V49.959C74.1029 50.3432 74.6554 50.8958 75.0394 51.5613C75.4234 52.2268 75.6254 52.9816 75.625 53.75V75.625C75.625 76.7853 75.1641 77.8981 74.3436 78.7186C73.5231 79.539 72.4103 80 71.25 80H53.75C53.1238 80.0001 52.5048 79.8658 51.935 79.6062C51.3651 79.3466 50.8577 78.9676 50.4469 78.495C50.109 78.1872 49.8391 77.8123 49.6545 77.3941C49.4699 76.976 49.3747 76.5239 49.375 76.0668V52.1137ZM55.9375 62.5C55.9375 64.2405 56.6289 65.9097 57.8596 67.1404C59.0903 68.3711 60.7595 69.0625 62.5 69.0625C64.2405 69.0625 65.9097 68.3711 67.1404 67.1404C68.3711 65.9097 69.0625 64.2405 69.0625 62.5C69.0625 60.7595 68.3711 59.0903 67.1404 57.8596C65.9097 56.6289 64.2405 55.9375 62.5 55.9375C60.7595 55.9375 59.0903 56.6289 57.8596 57.8596C56.6289 59.0903 55.9375 60.7595 55.9375 62.5ZM55.9375 72.3437C55.9375 72.6338 56.0527 72.912 56.2579 73.1171C56.463 73.3222 56.7412 73.4375 57.0313 73.4375H67.9688C68.2588 73.4375 68.537 73.3222 68.7422 73.1171C68.9473 72.912 69.0625 72.6338 69.0625 72.3437C69.0625 72.0536 68.9473 71.7754 68.7422 71.5703C68.537 71.3652 68.2588 71.25 67.9688 71.25H57.0313C56.7412 71.25 56.463 71.3652 56.2579 71.5703C56.0527 71.7754 55.9375 72.0536 55.9375 72.3437Z" fill="#009E65"/>
</g>
<defs>
<filter id="filter0_d_1_124" x="0" y="0" width="125" height="125" filterUnits="userSpaceOnUse" color-interpolation-filters="sRGB">
<feFlood flood-opacity="0" result="BackgroundImageFix"/>
<feColorMatrix in="SourceAlpha" type="matrix" values="0 0 0 0 0 0 0 0 0 0 0 0 0 0 0 0 0 0 127 0" result="hardAlpha"/>
<feOffset/>
<feGaussianBlur stdDeviation="12.5"/>
<feComposite in2="hardAlpha" operator="out"/>
<feColorMatrix type="matrix" values="0 0 0 0 0.658333 0 0 0 0 0.658333 0 0 0 0 0.658333 0 0 0 0.25 0"/>
<feBlend mode="normal" in2="BackgroundImageFix" result="effect1_dropShadow_1_124"/>
<feBlend mode="normal" in="SourceGraphic" in2="effect1_dropShadow_1_124" result="shape"/>
</filter>
<clipPath id="clip0_1_124">
<rect width="35" height="35" fill="white" transform="translate(45 45)"/>
</clipPath>
</defs>
</svg>
