<svg width="125" height="125" viewBox="0 0 125 125" fill="none" xmlns="http://www.w3.org/2000/svg">
<g filter="url(#filter0_d_1_100)">
<rect x="25" y="25" width="75" height="75" rx="16" fill="white"/>
</g>
<path d="M77.0837 59.5833V69.7916C77.0837 70.952 76.6227 72.0648 75.8022 72.8852C74.9818 73.7057 73.869 74.1666 72.7087 74.1666H52.292C51.1317 74.1666 50.0189 73.7057 49.1984 72.8852C48.3779 72.0648 47.917 70.952 47.917 69.7916V59.5833H77.0837ZM71.2503 65.4166H66.8753C66.4886 65.4166 66.1176 65.5703 65.8441 65.8438C65.5706 66.1173 65.417 66.4882 65.417 66.875C65.417 67.2618 65.5706 67.6327 65.8441 67.9062C66.1176 68.1797 66.4886 68.3333 66.8753 68.3333H71.2503C71.6371 68.3333 72.008 68.1797 72.2815 67.9062C72.555 67.6327 72.7087 67.2618 72.7087 66.875C72.7087 66.4882 72.555 66.1173 72.2815 65.8438C72.008 65.5703 71.6371 65.4166 71.2503 65.4166ZM72.7087 50.8333C73.869 50.8333 74.9818 51.2942 75.8022 52.1147C76.6227 52.9352 77.0837 54.048 77.0837 55.2083V56.6666H47.917V55.2083C47.917 54.048 48.3779 52.9352 49.1984 52.1147C50.0189 51.2942 51.1317 50.8333 52.292 50.8333H72.7087Z" fill="#009E65"/>
<defs>
<filter id="filter0_d_1_100" x="0" y="0" width="125" height="125" filterUnits="userSpaceOnUse" color-interpolation-filters="sRGB">
<feFlood flood-opacity="0" result="BackgroundImageFix"/>
<feColorMatrix in="SourceAlpha" type="matrix" values="0 0 0 0 0 0 0 0 0 0 0 0 0 0 0 0 0 0 127 0" result="hardAlpha"/>
<feOffset/>
<feGaussianBlur stdDeviation="12.5"/>
<feComposite in2="hardAlpha" operator="out"/>
<feColorMatrix type="matrix" values="0 0 0 0 0.658333 0 0 0 0 0.658333 0 0 0 0 0.658333 0 0 0 0.25 0"/>
<feBlend mode="normal" in2="BackgroundImageFix" result="effect1_dropShadow_1_100"/>
<feBlend mode="normal" in="SourceGraphic" in2="effect1_dropShadow_1_100" result="shape"/>
</filter>
</defs>
</svg>
