<svg width="58" height="58" viewBox="0 0 58 58" fill="none" xmlns="http://www.w3.org/2000/svg">
<g filter="url(#filter0_d_1_335)">
<rect x="10" y="10" width="38" height="38" rx="8" fill="white"/>
</g>
<path d="M29 26.75C28.4033 26.75 27.831 26.9871 27.409 27.409C26.9871 27.831 26.75 28.4033 26.75 29C26.75 29.5967 26.9871 30.169 27.409 30.591C27.831 31.0129 28.4033 31.25 29 31.25C29.5967 31.25 30.169 31.0129 30.591 30.591C31.0129 30.169 31.25 29.5967 31.25 29C31.25 28.4033 31.0129 27.831 30.591 27.409C30.169 26.9871 29.5967 26.75 29 26.75Z" fill="#009E65"/>
<path d="M22.25 23.6581C22.25 23.2628 22.3887 22.8801 22.642 22.5766C22.8953 22.2732 23.2471 22.0682 23.636 21.9976L32.636 20.3619C32.8791 20.3177 33.1289 20.3275 33.3678 20.3905C33.6067 20.4535 33.8288 20.5682 34.0185 20.7264C34.2082 20.8847 34.3609 21.0827 34.4657 21.3064C34.5705 21.5302 34.6249 21.7742 34.625 22.0212V22.55C34.9672 22.7476 35.2513 23.0318 35.4488 23.374C35.6463 23.7163 35.7502 24.1045 35.75 24.4996V35.7496C35.75 36.3464 35.5129 36.9187 35.091 37.3406C34.669 37.7626 34.0967 37.9996 33.5 37.9996H24.5C24.1779 37.9997 23.8596 37.9306 23.5666 37.7971C23.2735 37.6636 23.0125 37.4687 22.8013 37.2256C22.6275 37.0673 22.4887 36.8745 22.3937 36.6595C22.2988 36.4444 22.2498 36.2119 22.25 35.9769V23.6581ZM25.625 28.9996C25.625 29.8947 25.9806 30.7532 26.6135 31.3861C27.2465 32.019 28.1049 32.3746 29 32.3746C29.8951 32.3746 30.7536 32.019 31.3865 31.3861C32.0194 30.7532 32.375 29.8947 32.375 28.9996C32.375 28.1045 32.0194 27.2461 31.3865 26.6131C30.7536 25.9802 29.8951 25.6246 29 25.6246C28.1049 25.6246 27.2465 25.9802 26.6135 26.6131C25.9806 27.2461 25.625 28.1045 25.625 28.9996ZM25.625 34.0621C25.625 34.2113 25.6843 34.3544 25.7898 34.4599C25.8952 34.5654 26.0383 34.6246 26.1875 34.6246H31.8125C31.9617 34.6246 32.1048 34.5654 32.2102 34.4599C32.3157 34.3544 32.375 34.2113 32.375 34.0621C32.375 33.9129 32.3157 33.7699 32.2102 33.6644C32.1048 33.5589 31.9617 33.4996 31.8125 33.4996H26.1875C26.0383 33.4996 25.8952 33.5589 25.7898 33.6644C25.6843 33.7699 25.625 33.9129 25.625 34.0621Z" fill="#009E65"/>
<defs>
<filter id="filter0_d_1_335" x="0.878377" y="0.878377" width="56.2432" height="56.2432" filterUnits="userSpaceOnUse" color-interpolation-filters="sRGB">
<feFlood flood-opacity="0" result="BackgroundImageFix"/>
<feColorMatrix in="SourceAlpha" type="matrix" values="0 0 0 0 0 0 0 0 0 0 0 0 0 0 0 0 0 0 127 0" result="hardAlpha"/>
<feOffset/>
<feGaussianBlur stdDeviation="4.56081"/>
<feComposite in2="hardAlpha" operator="out"/>
<feColorMatrix type="matrix" values="0 0 0 0 0.658333 0 0 0 0 0.658333 0 0 0 0 0.658333 0 0 0 0.25 0"/>
<feBlend mode="normal" in2="BackgroundImageFix" result="effect1_dropShadow_1_335"/>
<feBlend mode="normal" in="SourceGraphic" in2="effect1_dropShadow_1_335" result="shape"/>
</filter>
</defs>
</svg>
