<svg width="58" height="58" viewBox="0 0 58 58" fill="none" xmlns="http://www.w3.org/2000/svg">
<g filter="url(#filter0_d_1_359)">
<rect x="10" y="10" width="38" height="38" rx="8" fill="white"/>
</g>
<path d="M36.5 27.5V32.75C36.5 33.3467 36.2629 33.919 35.841 34.341C35.419 34.7629 34.8467 35 34.25 35H23.75C23.1533 35 22.581 34.7629 22.159 34.341C21.7371 33.919 21.5 33.3467 21.5 32.75V27.5H36.5ZM33.5 30.5H31.25C31.0511 30.5 30.8603 30.579 30.7197 30.7197C30.579 30.8603 30.5 31.0511 30.5 31.25C30.5 31.4489 30.579 31.6397 30.7197 31.7803C30.8603 31.921 31.0511 32 31.25 32H33.5C33.6989 32 33.8897 31.921 34.0303 31.7803C34.171 31.6397 34.25 31.4489 34.25 31.25C34.25 31.0511 34.171 30.8603 34.0303 30.7197C33.8897 30.579 33.6989 30.5 33.5 30.5ZM34.25 23C34.8467 23 35.419 23.2371 35.841 23.659C36.2629 24.081 36.5 24.6533 36.5 25.25V26H21.5V25.25C21.5 24.6533 21.7371 24.081 22.159 23.659C22.581 23.2371 23.1533 23 23.75 23H34.25Z" fill="#009E65"/>
<defs>
<filter id="filter0_d_1_359" x="0.878377" y="0.878377" width="56.2432" height="56.2432" filterUnits="userSpaceOnUse" color-interpolation-filters="sRGB">
<feFlood flood-opacity="0" result="BackgroundImageFix"/>
<feColorMatrix in="SourceAlpha" type="matrix" values="0 0 0 0 0 0 0 0 0 0 0 0 0 0 0 0 0 0 127 0" result="hardAlpha"/>
<feOffset/>
<feGaussianBlur stdDeviation="4.56081"/>
<feComposite in2="hardAlpha" operator="out"/>
<feColorMatrix type="matrix" values="0 0 0 0 0.658333 0 0 0 0 0.658333 0 0 0 0 0.658333 0 0 0 0.25 0"/>
<feBlend mode="normal" in2="BackgroundImageFix" result="effect1_dropShadow_1_359"/>
<feBlend mode="normal" in="SourceGraphic" in2="effect1_dropShadow_1_359" result="shape"/>
</filter>
</defs>
</svg>
