<svg width="24" height="24" viewBox="0 0 24 24" fill="none" xmlns="http://www.w3.org/2000/svg">
<path d="M19.5018 4H3.94464C2.87509 4 2.00972 4.85078 2.00972 5.89062L2 17.2344C2 18.2742 2.87509 19.125 3.94464 19.125H19.5018C20.5713 19.125 21.4464 18.2742 21.4464 17.2344V5.89062C21.4464 4.85078 20.5713 4 19.5018 4ZM19.1129 8.01758L12.2385 12.1959C11.9274 12.3849 11.519 12.3849 11.2079 12.1959L4.33357 8.01758C4.23607 7.96437 4.1507 7.89248 4.0826 7.80626C4.01451 7.72004 3.96512 7.62128 3.93742 7.51597C3.90973 7.41065 3.90429 7.30097 3.92146 7.19356C3.93862 7.08614 3.97803 6.98323 4.03729 6.89105C4.09655 6.79887 4.17443 6.71934 4.26621 6.65727C4.358 6.5952 4.46179 6.55188 4.5713 6.52994C4.68081 6.508 4.79375 6.50788 4.90331 6.52961C5.01286 6.55133 5.11674 6.59444 5.20866 6.65633L11.7232 10.6172L18.2378 6.65633C18.3297 6.59444 18.4336 6.55133 18.5431 6.52961C18.6527 6.50788 18.7656 6.508 18.8751 6.52994C18.9846 6.55188 19.0884 6.5952 19.1802 6.65727C19.272 6.71934 19.3499 6.79887 19.4091 6.89105C19.4684 6.98323 19.5078 7.08614 19.525 7.19356C19.5421 7.30097 19.5367 7.41065 19.509 7.51597C19.4813 7.62128 19.4319 7.72004 19.3638 7.80626C19.2957 7.89248 19.2104 7.96437 19.1129 8.01758Z" fill="white"/>
</svg>
