<svg width="18" height="18" viewBox="0 0 18 18" fill="none" xmlns="http://www.w3.org/2000/svg">
<path d="M6.08333 7.75V10.875C6.08333 11.0556 6.1425 11.205 6.26083 11.3233C6.37917 11.4417 6.52833 11.5006 6.70833 11.5C6.88833 11.4994 7.03778 11.4403 7.15667 11.3225C7.27556 11.2047 7.33444 11.0556 7.33333 10.875V7.125C7.33333 6.94444 7.27417 6.79528 7.15583 6.6775C7.0375 6.55972 6.88833 6.50056 6.70833 6.5H5.45833C5.27778 6.5 5.12861 6.55917 5.01083 6.6775C4.89306 6.79583 4.83389 6.945 4.83333 7.125C4.83278 7.305 4.89194 7.45444 5.01083 7.57333C5.12972 7.69222 5.27889 7.75111 5.45833 7.75H6.08333ZM9.41667 11.5H11.5C11.7361 11.5 11.9342 11.42 12.0942 11.26C12.2542 11.1 12.3339 10.9022 12.3333 10.6667V7.33333C12.3333 7.09722 12.2533 6.89944 12.0933 6.74C11.9333 6.58055 11.7356 6.50056 11.5 6.5H9.41667C9.18055 6.5 8.98278 6.58 8.82333 6.74C8.66389 6.9 8.58389 7.09778 8.58333 7.33333V10.6667C8.58333 10.9028 8.66333 11.1008 8.82333 11.2608C8.98333 11.4208 9.18111 11.5006 9.41667 11.5ZM9.83333 10.6667V9.41667H11.0833V10.6667H9.83333ZM9.83333 8.58333V7.33333H11.0833V8.58333H9.83333ZM3.16667 16.5C2.70833 16.5 2.31611 16.3369 1.99 16.0108C1.66389 15.6847 1.50056 15.2922 1.5 14.8333V3.16667C1.5 2.70833 1.66333 2.31611 1.99 1.99C2.31667 1.66389 2.70889 1.50056 3.16667 1.5H14.8333C15.2917 1.5 15.6842 1.66333 16.0108 1.99C16.3375 2.31667 16.5006 2.70889 16.5 3.16667V14.8333C16.5 15.2917 16.3369 15.6842 16.0108 16.0108C15.6847 16.3375 15.2922 16.5006 14.8333 16.5H3.16667Z" fill="#009E65"/>
</svg>
