<svg width="35" height="35" viewBox="0 0 35 35" fill="none" xmlns="http://www.w3.org/2000/svg">
<path d="M11.829 15.0695V21.1459C11.829 21.4969 11.9441 21.7875 12.1742 22.0176C12.4043 22.2477 12.6943 22.3622 13.0443 22.3611C13.3943 22.36 13.6849 22.245 13.9161 22.016C14.1472 21.787 14.2617 21.4969 14.2596 21.1459V13.8542C14.2596 13.5031 14.1445 13.2131 13.9144 12.984C13.6844 12.755 13.3943 12.64 13.0443 12.6389H10.6138C10.2627 12.6389 9.97262 12.754 9.74361 12.984C9.5146 13.2141 9.39955 13.5042 9.39847 13.8542C9.39739 14.2042 9.51244 14.4948 9.74361 14.7259C9.97478 14.9571 10.2648 15.0716 10.6138 15.0695H11.829ZM18.3105 22.3611H22.3614C22.8205 22.3611 23.2056 22.2056 23.5168 21.8945C23.8279 21.5834 23.9829 21.1988 23.9818 20.7408V14.2593C23.9818 13.8002 23.8262 13.4156 23.5151 13.1056C23.204 12.7955 22.8195 12.64 22.3614 12.6389H18.3105C17.8514 12.6389 17.4668 12.7945 17.1568 13.1056C16.8468 13.4167 16.6912 13.8013 16.6901 14.2593V20.7408C16.6901 21.1999 16.8457 21.585 17.1568 21.8961C17.4679 22.2072 17.8525 22.3622 18.3105 22.3611ZM19.1207 20.7408V18.3102H21.5512V20.7408H19.1207ZM19.1207 16.6898V14.2593H21.5512V16.6898H19.1207ZM6.15773 32.0833C5.26653 32.0833 4.50387 31.7663 3.86977 31.1322C3.23567 30.4981 2.91807 29.7349 2.91699 28.8426V6.15743C2.91699 5.26622 3.23458 4.50357 3.86977 3.86946C4.50496 3.23536 5.26761 2.91777 6.15773 2.91669H28.8429C29.7341 2.91669 30.4973 3.23428 31.1325 3.86946C31.7677 4.50465 32.0847 5.2673 32.0837 6.15743V28.8426C32.0837 29.7338 31.7666 30.497 31.1325 31.1322C30.4984 31.7674 29.7352 32.0844 28.8429 32.0833H6.15773Z" fill="#009E65"/>
</svg>
