<svg width="35" height="35" viewBox="0 0 35 35" fill="none" xmlns="http://www.w3.org/2000/svg">
<path d="M21.2229 18.3341H28.2695V16.5286H21.2229V18.3341ZM21.2229 13.3328H28.2695V11.5272H21.2229V13.3328ZM6.73026 23.4727H18.1653V23.173C18.1653 22.1198 17.6583 21.3043 16.6443 20.7265C15.6303 20.1487 14.2315 19.8598 12.4478 19.8598C10.6641 19.8598 9.26466 20.1487 8.24952 20.7265C7.23438 21.3043 6.72796 22.1198 6.73026 23.173V23.4727ZM12.4478 16.9439C13.1772 16.9439 13.7913 16.6833 14.2903 16.1621C14.7903 15.6396 15.0404 14.9975 15.0404 14.2355C15.0404 13.4736 14.7903 12.832 14.2903 12.3108C13.7902 11.7896 13.176 11.5284 12.4478 11.5272C11.7196 11.526 11.1054 11.7872 10.6053 12.3108C10.1052 12.8344 9.8552 13.476 9.8552 14.2355C9.8552 14.9951 10.1052 15.6372 10.6053 16.1621C11.1054 16.6869 11.7196 16.9475 12.4478 16.9439ZM4.73742 30.1389C3.94121 30.1389 3.27693 29.8608 2.74458 29.3047C2.21224 28.7486 1.94549 28.054 1.94434 27.2211V7.77886C1.94434 6.9471 2.21108 6.25317 2.74458 5.69706C3.27808 5.14094 3.94178 4.86229 4.73569 4.86108H30.2641C31.0592 4.86108 31.7229 5.13974 32.2552 5.69706C32.7875 6.25437 33.0543 6.94831 33.0554 7.77886V27.2229C33.0554 28.0534 32.7887 28.7474 32.2552 29.3047C31.7217 29.862 31.058 30.1401 30.2641 30.1389H4.73742Z" fill="#009E65"/>
</svg>
