<svg width="18" height="18" viewBox="0 0 18 18" fill="none" xmlns="http://www.w3.org/2000/svg">
<path d="M10.9147 9.429H14.5387V8.50043H10.9147V9.429ZM10.9147 6.85686H14.5387V5.92829H10.9147V6.85686ZM3.46133 12.0717H9.34222V11.9176C9.34222 11.3759 9.08148 10.9565 8.56 10.6594C8.03852 10.3622 7.31911 10.2136 6.40178 10.2136C5.48444 10.2136 4.76474 10.3622 4.24267 10.6594C3.72059 10.9565 3.46015 11.3759 3.46133 11.9176V12.0717ZM6.40178 8.714C6.77689 8.714 7.09274 8.57998 7.34933 8.31193C7.60652 8.04326 7.73511 7.713 7.73511 7.32114C7.73511 6.92929 7.60652 6.59933 7.34933 6.33129C7.09215 6.06324 6.7763 5.9289 6.40178 5.92829C6.02726 5.92767 5.71141 6.062 5.45422 6.33129C5.19704 6.60057 5.06844 6.93052 5.06844 7.32114C5.06844 7.71176 5.19704 8.04202 5.45422 8.31193C5.71141 8.58183 6.02726 8.71586 6.40178 8.714ZM2.43644 15.5C2.02696 15.5 1.68533 15.357 1.41156 15.071C1.13778 14.785 1.00059 14.4278 1 13.9994V4.00057C1 3.57281 1.13719 3.21593 1.41156 2.92993C1.68593 2.64393 2.02726 2.50062 2.43556 2.5H15.5644C15.9733 2.5 16.3147 2.64331 16.5884 2.92993C16.8622 3.21655 16.9994 3.57343 17 4.00057V14.0004C17 14.4275 16.8628 14.7844 16.5884 15.071C16.3141 15.3576 15.9727 15.5006 15.5644 15.5H2.43644Z" fill="#009E65"/>
</svg>
