<svg width="26" height="26" viewBox="0 0 26 26" fill="none" xmlns="http://www.w3.org/2000/svg">
<path d="M4.33301 7.58333C4.33301 7.29602 4.44714 7.02047 4.65031 6.8173C4.85347 6.61414 5.12902 6.5 5.41634 6.5H20.583C20.8703 6.5 21.1459 6.61414 21.349 6.8173C21.5522 7.02047 21.6663 7.29602 21.6663 7.58333C21.6663 7.87065 21.5522 8.1462 21.349 8.34937C21.1459 8.55253 20.8703 8.66667 20.583 8.66667H5.41634C5.12902 8.66667 4.85347 8.55253 4.65031 8.34937C4.44714 8.1462 4.33301 7.87065 4.33301 7.58333ZM4.33301 13C4.33301 12.7127 4.44714 12.4371 4.65031 12.234C4.85347 12.0308 5.12902 11.9167 5.41634 11.9167H20.583C20.8703 11.9167 21.1459 12.0308 21.349 12.234C21.5522 12.4371 21.6663 12.7127 21.6663 13C21.6663 13.2873 21.5522 13.5629 21.349 13.766C21.1459 13.9692 20.8703 14.0833 20.583 14.0833H5.41634C5.12902 14.0833 4.85347 13.9692 4.65031 13.766C4.44714 13.5629 4.33301 13.2873 4.33301 13ZM4.33301 18.4167C4.33301 18.1293 4.44714 17.8538 4.65031 17.6506C4.85347 17.4475 5.12902 17.3333 5.41634 17.3333H20.583C20.8703 17.3333 21.1459 17.4475 21.349 17.6506C21.5522 17.8538 21.6663 18.1293 21.6663 18.4167C21.6663 18.704 21.5522 18.9795 21.349 19.1827C21.1459 19.3859 20.8703 19.5 20.583 19.5H5.41634C5.12902 19.5 4.85347 19.3859 4.65031 19.1827C4.44714 18.9795 4.33301 18.704 4.33301 18.4167Z" fill="white"/>
</svg>
