<svg width="24" height="24" viewBox="0 0 24 24" fill="none" xmlns="http://www.w3.org/2000/svg">
<g clip-path="url(#clip0_1_589)">
<path fill-rule="evenodd" clip-rule="evenodd" d="M19.9681 3.5325C20.2152 3.4285 20.4857 3.39262 20.7513 3.42862C21.017 3.46462 21.2682 3.57117 21.4787 3.73719C21.6893 3.90321 21.8515 4.12262 21.9484 4.37259C22.0454 4.62256 22.0736 4.89394 22.0301 5.1585L19.7621 18.9155C19.5421 20.2425 18.0861 21.0035 16.8691 20.3425C15.8511 19.7895 14.3391 18.9375 12.9791 18.0485C12.2991 17.6035 10.2161 16.1785 10.4721 15.1645C10.6921 14.2975 14.1921 11.0395 16.1921 9.1025C16.9771 8.3415 16.6191 7.9025 15.6921 8.6025C13.3901 10.3405 9.69406 12.9835 8.47206 13.7275C7.39406 14.3835 6.83206 14.4955 6.16006 14.3835C4.93406 14.1795 3.79706 13.8635 2.86906 13.4785C1.61506 12.9585 1.67606 11.2345 2.86806 10.7325L19.9681 3.5325Z" fill="#009E65"/>
</g>
<defs>
<clipPath id="clip0_1_589">
<rect width="24" height="24" fill="white"/>
</clipPath>
</defs>
</svg>
