<svg width="116" height="32" viewBox="0 0 116 32" fill="none" xmlns="http://www.w3.org/2000/svg">
<path d="M0 0.00520749H10.8826C11.8719 0.00520749 14.8399 -0.328072 16.159 4.33784C17.1484 7.33735 18.4675 12.0033 20.4461 19.0021H21.1057C23.0843 11.67 24.7332 6.67079 25.3928 4.33784C26.7119 -0.328072 30.0096 0.00520749 31.3287 0.00520749H41.5518V32H30.9989V13.0031H30.3394L24.7332 32H16.8186L11.2124 13.0031H10.2231V32H0M45.8389 0.00520749H56.3917V19.0021H57.381L64.3063 3.338C65.6254 0.338487 68.5934 0.00520749 68.5934 0.00520749H78.4867V32H67.9339V13.0031H67.2743L60.349 28.6672C59.0299 31.6667 55.7321 32 55.7321 32H45.8389M92.6671 22.3349V32H82.7738V15.336H115.092C113.773 19.3354 109.156 22.3349 103.879 22.3349" fill="#3B5958"/>
<path d="M115.751 13.3365C117.071 7.33751 113.113 0.00537109 104.539 0.00537109H82.1143C82.7738 7.00423 88.7098 13.3365 94.9755 13.3365" fill="#63766D" fill-opacity="0.4"/>
</svg>
