<svg width="89" height="25" viewBox="0 0 89 25" fill="none" xmlns="http://www.w3.org/2000/svg">
<path d="M0.765625 0.311623H9.04335C9.79587 0.311623 12.0534 0.0552544 13.0568 3.64441C13.8093 5.95173 14.8127 9.54089 16.3177 14.9246H16.8194C18.3244 9.28452 19.5786 5.43899 20.0803 3.64441C21.0837 0.0552544 23.5921 0.311623 24.5955 0.311623H32.3715V24.923H24.3446V10.31H23.8429L19.5786 24.923H13.5585L9.29419 10.31H8.54167V24.923H0.765625M35.6324 0.311623H43.6593V14.9246H44.4118L49.6795 2.87531C50.6828 0.567991 52.9404 0.311623 52.9404 0.311623H60.4656V24.923H52.4387V10.31H51.937L46.6694 22.3593C45.666 24.6666 43.1576 24.923 43.1576 24.923H35.6324M71.2517 17.4883V24.923H63.7265V12.1046H88.3089C87.3055 15.181 83.7938 17.4883 79.7803 17.4883" fill="#3B5958"/>
<path d="M88.8103 10.5663C89.8137 5.95163 86.8036 0.311523 80.2817 0.311523H63.2246C63.7263 5.69526 68.2414 10.5663 73.0074 10.5663" fill="#63766D" fill-opacity="0.4"/>
</svg>
