<svg width="20" height="20" viewBox="0 0 20 20" fill="none" xmlns="http://www.w3.org/2000/svg">
<path d="M4.66667 10.6667H4V9.33337H4.66667C4.84348 9.33337 5.01305 9.40361 5.13807 9.52864C5.2631 9.65366 5.33333 9.82323 5.33333 10C5.33333 10.1769 5.2631 10.3464 5.13807 10.4714C5.01305 10.5965 4.84348 10.6667 4.66667 10.6667ZM9.33333 13.3334V9.33337H10C10.1768 9.33337 10.3464 9.40361 10.4714 9.52864C10.5964 9.65366 10.6667 9.82323 10.6667 10V12.6667C10.6667 12.8435 10.5964 13.0131 10.4714 13.1381C10.3464 13.2631 10.1768 13.3334 10 13.3334H9.33333Z" fill="white"/>
<path fill-rule="evenodd" clip-rule="evenodd" d="M1.33301 2C1.33301 1.46957 1.54372 0.960859 1.91879 0.585786C2.29387 0.210714 2.80257 0 3.33301 0L14.2757 0L18.6663 4.39067V18C18.6663 18.5304 18.4556 19.0391 18.0806 19.4142C17.7055 19.7893 17.1968 20 16.6663 20H3.33301C2.80257 20 2.29387 19.7893 1.91879 19.4142C1.54372 19.0391 1.33301 18.5304 1.33301 18V2ZM4.66634 8H2.66634V14.6667H3.99967V12H4.66634C5.19677 12 5.70548 11.7893 6.08055 11.4142C6.45563 11.0391 6.66634 10.5304 6.66634 10C6.66634 9.46957 6.45563 8.96086 6.08055 8.58579C5.70548 8.21071 5.19677 8 4.66634 8ZM9.99967 8H7.99967V14.6667H9.99967C10.5301 14.6667 11.0388 14.456 11.4139 14.0809C11.789 13.7058 11.9997 13.1971 11.9997 12.6667V10C11.9997 9.46957 11.789 8.96086 11.4139 8.58579C11.0388 8.21071 10.5301 8 9.99967 8ZM13.333 14.6667V8H17.333V9.33333H14.6663V10.6667H15.9997V12H14.6663V14.6667H13.333Z" fill="white"/>
</svg>
