<svg width="20" height="20" viewBox="0 0 20 20" fill="none" xmlns="http://www.w3.org/2000/svg">
<g opacity="0.5">
<path d="M4.66667 10.6666H4V9.33325H4.66667C4.84348 9.33325 5.01305 9.40349 5.13807 9.52851C5.2631 9.65354 5.33333 9.82311 5.33333 9.99992C5.33333 10.1767 5.2631 10.3463 5.13807 10.4713C5.01305 10.5963 4.84348 10.6666 4.66667 10.6666ZM9.33333 13.3333V9.33325H10C10.1768 9.33325 10.3464 9.40349 10.4714 9.52851C10.5964 9.65354 10.6667 9.82311 10.6667 9.99992V12.6666C10.6667 12.8434 10.5964 13.013 10.4714 13.138C10.3464 13.263 10.1768 13.3333 10 13.3333H9.33333Z" fill="#B6BEC5"/>
<path fill-rule="evenodd" clip-rule="evenodd" d="M1.33325 2C1.33325 1.46957 1.54397 0.960859 1.91904 0.585786C2.29411 0.210714 2.80282 0 3.33325 0L14.2759 0L18.6666 4.39067V18C18.6666 18.5304 18.4559 19.0391 18.0808 19.4142C17.7057 19.7893 17.197 20 16.6666 20H3.33325C2.80282 20 2.29411 19.7893 1.91904 19.4142C1.54397 19.0391 1.33325 18.5304 1.33325 18V2ZM4.66659 8H2.66659V14.6667H3.99992V12H4.66659C5.19702 12 5.70573 11.7893 6.0808 11.4142C6.45587 11.0391 6.66659 10.5304 6.66659 10C6.66659 9.46957 6.45587 8.96086 6.0808 8.58579C5.70573 8.21071 5.19702 8 4.66659 8ZM9.99992 8H7.99992V14.6667H9.99992C10.5304 14.6667 11.0391 14.456 11.4141 14.0809C11.7892 13.7058 11.9999 13.1971 11.9999 12.6667V10C11.9999 9.46957 11.7892 8.96086 11.4141 8.58579C11.0391 8.21071 10.5304 8 9.99992 8ZM13.3333 14.6667V8H17.3333V9.33333H14.6666V10.6667H15.9999V12H14.6666V14.6667H13.3333Z" fill="#009E65"/>
</g>
</svg>
