<svg width="104" height="32" viewBox="0 0 104 32" fill="none" xmlns="http://www.w3.org/2000/svg">
<path d="M97.0059 0.456543H90.4679C88.4913 0.456543 86.9709 1.06607 86.0586 3.04702L73.5908 31.5423H82.4095C82.4095 31.5423 83.93 27.7327 84.234 26.8185C85.1463 26.8185 93.8129 26.8185 95.0293 26.8185C95.3334 27.8851 96.0936 31.3899 96.0936 31.3899H104L97.0059 0.456543ZM86.6668 20.4185C87.427 18.5899 90.0118 11.7327 90.0118 11.7327C90.0118 11.8851 90.772 9.90416 91.0761 8.8375L91.6843 11.5804C91.6843 11.5804 93.3568 19.047 93.6609 20.5708H86.6668V20.4185Z" fill="#3B5958"/>
<path d="M74.1997 21.3333C74.1997 27.7333 68.422 32 59.4513 32C55.6501 32 52.001 31.2381 50.0244 30.3238L51.2408 23.3143L52.3051 23.7714C55.0419 24.9905 56.8665 25.4476 60.2115 25.4476C62.6442 25.4476 65.229 24.5333 65.229 22.4C65.229 21.0286 64.1647 20.1143 60.8197 18.5905C57.6267 17.0667 53.3694 14.6286 53.3694 10.2095C53.3694 4.11429 59.2992 0 67.6618 0C70.8547 0 73.5916 0.609524 75.2641 1.37143L74.0477 8.07619L73.4395 7.46667C71.919 6.85714 69.9424 6.24762 67.0536 6.24762C63.8606 6.4 62.3401 7.77143 62.3401 8.99048C62.3401 10.3619 64.1647 11.4286 67.0536 12.8C71.919 15.0857 74.1997 17.6762 74.1997 21.3333Z" fill="#3B5958"/>
<path d="M0 0.7626L0.152046 0.153076H13.228C15.0526 0.153076 16.421 0.7626 16.8771 2.74355L19.766 16.4578C16.8771 9.14355 10.1871 3.2007 0 0.7626Z" fill="#63766D" fill-opacity="0.4"/>
<path d="M38.1643 0.455848L24.9363 31.3892H15.9656L8.36328 5.48442C13.8369 8.98918 18.3983 14.4749 20.0708 18.2844L20.9831 21.4844L29.1936 0.303467H38.1643V0.455848Z" fill="#3B5958"/>
<path d="M41.6605 0.303467H50.023L44.7014 31.3892H36.3389L41.6605 0.303467Z" fill="#3B5958"/>
</svg>
