<svg width="80" height="25" viewBox="0 0 80 25" fill="none" xmlns="http://www.w3.org/2000/svg">
<path d="M74.2167 0.658691H69.2436C67.7402 0.658691 66.5836 1.12756 65.8897 2.65137L56.4062 24.5708H63.1141C63.1141 24.5708 64.2706 21.6404 64.5019 20.9371C65.1958 20.9371 71.788 20.9371 72.7132 20.9371C72.9445 21.7576 73.5228 24.4536 73.5228 24.4536H79.5367L74.2167 0.658691ZM66.3523 16.014C66.9306 14.6074 68.8967 9.33269 68.8967 9.33269C68.8967 9.4499 69.4749 7.92609 69.7062 7.10558L70.1688 9.21547C70.1688 9.21547 71.441 14.9591 71.6723 16.1312H66.3523V16.014Z" fill="#3B5958"/>
<path d="M56.8701 16.7179C56.8701 21.641 52.4753 24.923 45.6519 24.923C42.7606 24.923 39.9849 24.3369 38.4814 23.6336L39.4067 18.2417L40.2162 18.5933C42.298 19.5311 43.6858 19.8827 46.2301 19.8827C48.0806 19.8827 50.0467 19.1794 50.0467 17.5384C50.0467 16.4834 49.2371 15.7801 46.6927 14.608C44.264 13.4358 41.0258 11.5604 41.0258 8.1611C41.0258 3.47245 45.5362 0.307617 51.8971 0.307617C54.3258 0.307617 56.4075 0.776482 57.6797 1.36256L56.7545 6.52007L56.2919 6.05121C55.1353 5.58234 53.6319 5.11348 51.4345 5.11348C49.0058 5.23069 47.8493 6.28564 47.8493 7.22337C47.8493 8.27831 49.2371 9.09883 51.4345 10.1538C55.1353 11.912 56.8701 13.9047 56.8701 16.7179Z" fill="#3B5958"/>
<path d="M0.430664 0.894158L0.546316 0.425293H10.4924C11.8802 0.425293 12.9211 0.894157 13.268 2.41797L15.4654 12.9674C13.268 7.34104 8.17935 2.76962 0.430664 0.894158Z" fill="#63766D" fill-opacity="0.4"/>
<path d="M29.4608 0.657988L19.399 24.4529H12.5756L6.79297 4.52612C10.9564 7.22209 14.426 11.4419 15.6982 14.3723L16.3921 16.8338L22.6373 0.540771H29.4608V0.657988Z" fill="#3B5958"/>
<path d="M32.1191 0.540771H38.48L34.4322 24.4529H28.0713L32.1191 0.540771Z" fill="#3B5958"/>
</svg>
